<svg xmlns="http://www.w3.org/2000/svg" width="48" height="48" viewBox="0 0 48 48" fill="none">
  <circle cx="24" cy="24" r="6" fill="black"/>
  <path d="M38 24a14 14 0 0 0-.7-4.2l4.3-2.5-4-7-4.9 2.1a14.1 14.1 0 0 0-3.6-2.1l-.7-5.3h-8l-.7 5.3a14.1 14.1 0 0 0-3.6 2.1l-4.9-2.1-4 7 4.3 2.5A14 14 0 0 0 10 24a14 14 0 0 0 .7 4.2l-4.3 2.5 4 7 4.9-2.1a14.1 14.1 0 0 0 3.6 2.1l.7 5.3h8l.7-5.3a14.1 14.1 0 0 0 3.6-2.1l4.9 2.1 4-7-4.3-2.5c.5-1.3.7-2.7.7-2.8z" stroke="black" stroke-width="2" fill="none"/>
</svg>
